<mxfile host="app.diagrams.net" modified="2021-07-20T09:04:40.087Z" agent="5.0 (Windows NT 10.0; WOW64) AppleWebKit/537.36 (KHTML, like Gecko) Chrome/91.0.4472.124 Safari/537.36" etag="NM6p6l48ECLMHOkh0W_4" version="14.7.3" type="github">
  <diagram id="oB8cgf8ifboX20KTPuaf" name="第 1 页">
    <mxGraphModel dx="1182" dy="616" grid="0" gridSize="10" guides="1" tooltips="1" connect="1" arrows="0" fold="1" page="1" pageScale="1" pageWidth="827" pageHeight="1169" math="0" shadow="0">
      <root>
        <mxCell id="0" />
        <mxCell id="1" parent="0" />
        <mxCell id="IVcZvgsZsqBMKXzK_aoz-1" value="" style="shape=card;whiteSpace=wrap;html=1;size=20;" vertex="1" parent="1">
          <mxGeometry x="190" y="240" width="460" height="80" as="geometry" />
        </mxCell>
        <mxCell id="IVcZvgsZsqBMKXzK_aoz-2" value="" style="shape=card;whiteSpace=wrap;html=1;size=20;" vertex="1" parent="1">
          <mxGeometry x="190" y="420" width="460" height="80" as="geometry" />
        </mxCell>
        <mxCell id="IVcZvgsZsqBMKXzK_aoz-4" value="&lt;h1&gt;核心层&lt;/h1&gt;" style="text;html=1;align=center;verticalAlign=middle;resizable=0;points=[];autosize=1;strokeColor=none;" vertex="1" parent="1">
          <mxGeometry x="100" y="255" width="90" height="50" as="geometry" />
        </mxCell>
        <mxCell id="IVcZvgsZsqBMKXzK_aoz-5" value="&lt;h1&gt;汇聚层&lt;/h1&gt;" style="text;html=1;align=center;verticalAlign=middle;resizable=0;points=[];autosize=1;strokeColor=none;" vertex="1" parent="1">
          <mxGeometry x="100" y="345" width="90" height="50" as="geometry" />
        </mxCell>
        <mxCell id="IVcZvgsZsqBMKXzK_aoz-6" value="&lt;h1&gt;接入层&lt;/h1&gt;" style="text;html=1;align=center;verticalAlign=middle;resizable=0;points=[];autosize=1;strokeColor=none;" vertex="1" parent="1">
          <mxGeometry x="100" y="435" width="90" height="50" as="geometry" />
        </mxCell>
        <mxCell id="IVcZvgsZsqBMKXzK_aoz-7" value="&lt;font style=&quot;font-size: 18px&quot;&gt;智能化AI中心&lt;/font&gt;" style="rounded=1;whiteSpace=wrap;html=1;" vertex="1" parent="1">
          <mxGeometry x="240" y="285" width="380" height="30" as="geometry" />
        </mxCell>
        <mxCell id="IVcZvgsZsqBMKXzK_aoz-12" value="" style="shape=card;whiteSpace=wrap;html=1;size=20;" vertex="1" parent="1">
          <mxGeometry x="190" y="330" width="460" height="80" as="geometry" />
        </mxCell>
        <mxCell id="IVcZvgsZsqBMKXzK_aoz-13" value="&lt;span style=&quot;font-size: 18px&quot;&gt;管理/控制/分析&lt;/span&gt;" style="rounded=1;whiteSpace=wrap;html=1;" vertex="1" parent="1">
          <mxGeometry x="240" y="375" width="380" height="30" as="geometry" />
        </mxCell>
        <mxCell id="IVcZvgsZsqBMKXzK_aoz-14" value="&lt;font style=&quot;font-size: 18px&quot;&gt;数据收集&lt;br&gt;&lt;/font&gt;" style="rounded=1;whiteSpace=wrap;html=1;" vertex="1" parent="1">
          <mxGeometry x="240" y="340" width="120" height="30" as="geometry" />
        </mxCell>
        <mxCell id="IVcZvgsZsqBMKXzK_aoz-15" value="&lt;font style=&quot;font-size: 18px&quot;&gt;轻量模型训练&lt;br&gt;&lt;/font&gt;" style="rounded=1;whiteSpace=wrap;html=1;" vertex="1" parent="1">
          <mxGeometry x="370" y="340" width="120" height="30" as="geometry" />
        </mxCell>
        <mxCell id="IVcZvgsZsqBMKXzK_aoz-16" value="&lt;font style=&quot;font-size: 18px&quot;&gt;权重/策略下发&lt;br&gt;&lt;/font&gt;" style="rounded=1;whiteSpace=wrap;html=1;" vertex="1" parent="1">
          <mxGeometry x="500" y="340" width="120" height="30" as="geometry" />
        </mxCell>
        <mxCell id="IVcZvgsZsqBMKXzK_aoz-17" value="&lt;font style=&quot;font-size: 18px&quot;&gt;全网调度&lt;br&gt;&lt;/font&gt;" style="rounded=1;whiteSpace=wrap;html=1;" vertex="1" parent="1">
          <mxGeometry x="240" y="250" width="190" height="30" as="geometry" />
        </mxCell>
        <mxCell id="IVcZvgsZsqBMKXzK_aoz-18" value="&lt;font style=&quot;font-size: 18px&quot;&gt;智慧运营中台&lt;br&gt;&lt;/font&gt;" style="rounded=1;whiteSpace=wrap;html=1;" vertex="1" parent="1">
          <mxGeometry x="440" y="250" width="180" height="30" as="geometry" />
        </mxCell>
        <mxCell id="IVcZvgsZsqBMKXzK_aoz-19" value="&lt;span style=&quot;font-size: 18px&quot;&gt;接入设备(真实机器/虚拟网元)&lt;/span&gt;" style="rounded=1;whiteSpace=wrap;html=1;" vertex="1" parent="1">
          <mxGeometry x="240" y="466" width="380" height="30" as="geometry" />
        </mxCell>
        <mxCell id="IVcZvgsZsqBMKXzK_aoz-20" value="&lt;font style=&quot;font-size: 18px&quot;&gt;数据采集&lt;br&gt;&lt;/font&gt;" style="rounded=1;whiteSpace=wrap;html=1;" vertex="1" parent="1">
          <mxGeometry x="240" y="430" width="120" height="30" as="geometry" />
        </mxCell>
        <mxCell id="IVcZvgsZsqBMKXzK_aoz-21" value="&lt;font style=&quot;font-size: 18px&quot;&gt;自适应推理&lt;br&gt;&lt;/font&gt;" style="rounded=1;whiteSpace=wrap;html=1;" vertex="1" parent="1">
          <mxGeometry x="370" y="430" width="120" height="30" as="geometry" />
        </mxCell>
        <mxCell id="IVcZvgsZsqBMKXzK_aoz-22" value="&lt;font style=&quot;font-size: 18px&quot;&gt;受控执行&lt;br&gt;&lt;/font&gt;" style="rounded=1;whiteSpace=wrap;html=1;" vertex="1" parent="1">
          <mxGeometry x="500" y="430" width="120" height="30" as="geometry" />
        </mxCell>
      </root>
    </mxGraphModel>
  </diagram>
</mxfile>
